<?xml version="1.0" encoding="UTF-8"?>
<svg version="1.1" xmlns="http://www.w3.org/2000/svg" width="1500" height="1500">
<path d="M0 0 C495 0 990 0 1500 0 C1500 495 1500 990 1500 1500 C1005 1500 510 1500 0 1500 C0 1005 0 510 0 0 Z " fill="#171716" transform="translate(0,0)"/>
<path d="M0 0 C15.18 0 30.36 0 46 0 C46 143.55 46 287.1 46 435 C139.86686378 434.60413378 139.86686378 434.60413378 233.7331543 434.09912109 C251.89221191 434.05395508 251.89221191 434.05395508 260.39460754 434.04556274 C266.33027377 434.03624981 272.26499516 433.99962494 278.20039368 433.94424438 C285.0521905 433.88040829 291.90308355 433.85168183 298.75517969 433.8655505 C302.257818 433.87155362 305.758439 433.86231007 309.26070344 433.80784869 C334.39064716 433.47393071 334.39064716 433.47393071 343.57282734 442.3946476 C344.77427781 443.68429704 344.77427781 443.68429704 346 445 C347.89686576 446.58647964 349.81122101 448.15252332 351.75 449.6875 C352.64332031 450.42355469 353.53664063 451.15960937 354.45703125 451.91796875 C360.08039503 456.52204385 365.8629811 460.904724 371.6875 465.25 C381.07722542 472.27136156 390.24079192 479.57935849 399.38671875 486.9140625 C407.6441842 493.50522326 415.9753628 500.00020405 424.36401367 506.42333984 C428.61937684 509.68861003 432.80999515 513.02870039 436.9765625 516.40625 C439.11488722 518.13370228 439.11488722 518.13370228 442 520 C442.24395752 522.37271118 442.24395752 522.37271118 442.06738281 525.38916016 C441.98571869 527.08330551 441.98571869 527.08330551 441.90240479 528.81167603 C441.83664246 530.04171356 441.77088013 531.2717511 441.703125 532.5390625 C441.62786453 535.14826471 441.55907028 537.7576599 441.49609375 540.3671875 C441.39507628 544.48207866 441.26498662 548.58721579 441.00244141 552.6953125 C439.67197358 568.03413795 439.67197358 568.03413795 445.16625977 581.77038574 C450.52051544 586.65449623 456.53243817 590.15920086 462.9798584 593.40789795 C467.07456535 595.56646937 470.83155087 598.15473553 474.62774658 600.79629517 C476.87283539 602.20862787 476.87283539 602.20862787 479.09547424 601.76409912 C479.72396774 601.51194641 480.35246124 601.2597937 481 601 C482.14428467 600.60506348 483.28856934 600.21012695 484.4675293 599.80322266 C495.47442696 595.57756049 508.160011 589.77577017 514 579 C517.44384915 566.75315675 516.17499262 553.31649219 515.26635742 540.74853516 C513.89110323 520.56581941 513.89110323 520.56581941 517.38671875 516.15600586 C520.23796552 513.46137482 523.48718864 511.72802967 527 510 C528.20124122 509.10921845 529.38318774 508.19028361 530.5234375 507.22265625 C531.46445312 506.50980469 532.40546875 505.79695313 533.375 505.0625 C534.46272504 504.23370966 535.54994589 503.40425728 536.63671875 502.57421875 C537.18505371 502.15575684 537.73338867 501.73729492 538.29833984 501.30615234 C547.76681115 494.03838743 557.0871545 486.57341074 566.37890625 479.08203125 C571.50268348 474.96162613 576.68218131 470.92045439 581.90161133 466.92236328 C585.95829747 463.81146926 589.98519585 460.66471519 594 457.5 C600.06364383 452.72169031 606.13561843 447.94788065 612.31968218 443.32575232 C614.07432187 441.97664474 614.07432187 441.97664474 615.88848537 440.25572914 C621.93305339 434.93165055 626.3384447 433.99936154 634.25660706 434.15821838 C635.90576614 434.14923019 635.90576614 434.14923019 637.58824158 434.14006042 C641.26741087 434.12851475 644.94432717 434.16706317 648.62329102 434.20532227 C651.30773491 434.20746753 653.9920464 434.20684118 656.67647457 434.20276546 C663.12965753 434.19905324 669.58215518 434.23128077 676.03516236 434.27627477 C683.50393628 434.32678648 690.97230191 434.33224392 698.44128418 434.33776855 C718.1484643 434.374482 737.85549252 434.47221032 757.5625 434.5625 C801.596875 434.706875 845.63125 434.85125 891 435 C891 291.45 891 147.9 891 0 C906.51 0 922.02 0 938 0 C937.93603027 4.89996826 937.87206055 9.79993652 937.80615234 14.84838867 C937.60773948 31.05714628 937.50789497 47.26541187 937.45853233 63.47527599 C937.42621235 73.30161273 937.3604875 83.12556321 937.21484375 92.95092773 C937.08791541 101.51953145 937.02496468 110.08586935 937.03737414 118.65544492 C937.04174446 123.19017096 937.01508693 127.71972301 936.91166306 132.25337791 C935.7201386 150.16971411 935.7201386 150.16971411 940.77874184 166.77228928 C944.88827973 171.05942716 949.50026716 173.74841325 954.92687798 176.06715584 C957.65135339 177.29308994 959.85297111 178.96829307 962.15234375 180.859375 C963.1278418 181.601875 963.1278418 181.601875 964.12304688 182.359375 C965.39222675 183.33209413 966.66037176 184.30616434 967.92773438 185.28125 C970.60313709 187.31444675 972.78775383 188.92925128 976 190 C976 149.08 976 108.16 976 66 C997.78 66 1019.56 66 1042 66 C1042 230.01 1042 394.02 1042 563 C887.23 563 732.46 563 573 563 C573 583.13 573 603.26 573 624 C552.3647293 639.20493631 552.3647293 639.20493631 544.08984375 644.87109375 C540.78336344 647.14926287 537.51299213 649.47273622 534.25 651.8125 C529.07669436 655.52032505 523.88876621 659.20648843 518.6875 662.875 C517.98149658 663.37314209 517.27549316 663.87128418 516.5480957 664.38452148 C512.84145557 666.99892546 509.13261974 669.6101754 505.421875 672.21875 C504.67075439 672.74742676 503.91963379 673.27610352 503.14575195 673.82080078 C501.7257509 674.82021777 500.3050704 675.81867045 498.88354492 676.81591797 C498.22974854 677.27627441 497.57595215 677.73663086 496.90234375 678.2109375 C496.25998779 678.66178711 495.61763184 679.11263672 494.95581055 679.57714844 C493.59388377 680.56794974 492.25813527 681.59532463 490.94458008 682.64941406 C485.68694722 686.84652119 482.25929814 688.17035899 475.4140625 687.83203125 C469.41588723 686.37023339 465.31795086 682.41005252 460.76708984 678.46289062 C457.6682016 675.8974667 454.33398451 673.68316849 451 671.4375 C449.6379252 670.51055717 448.27594505 669.58347526 446.9140625 668.65625 C446.25438477 668.20894531 445.59470703 667.76164062 444.91503906 667.30078125 C436.87328093 661.83845497 428.92033412 656.25258598 421.01904297 650.58959961 C417.69305764 648.20627074 414.35655024 645.84024616 411 643.5 C406.94251937 640.66779817 402.90436352 637.80949315 398.875 634.9375 C398.31296875 634.53789063 397.7509375 634.13828125 397.171875 633.7265625 C392.72492662 630.55164819 388.37481674 627.28111256 384 624 C384 603.87 384 583.74 384 563 C222.63 563 61.26 563 -105 563 C-105 398.99 -105 234.98 -105 66 C-82.89 66 -60.78 66 -38 66 C-37.67 106.92 -37.34 147.84 -37 190 C-30.73 185.38 -24.46 180.76 -18 176 C-14.84187744 174.4953418 -11.68375488 172.99068359 -8.42993164 171.44042969 C-3.6861638 168.06494138 -1.59173892 166.2121519 -0.0888176 160.59364319 C1.60488464 150.41481707 1.14308163 139.94114888 0.92562604 129.66690159 C0.84704784 125.10259008 0.86548319 120.53864983 0.87327576 115.97381592 C0.87344342 107.34554261 0.78738302 98.72040919 0.66970628 90.09302592 C0.53989464 80.26474928 0.50716319 70.43688175 0.48225892 60.60786676 C0.42890764 40.40340379 0.24190417 20.20314591 0 0 Z " fill="#D6D6D6" transform="translate(282,524)"/>
<path d="M0 0 C11.24240378 2.24848076 11.24240378 2.24848076 16.2421875 3.62109375 C17.87220703 4.06485352 17.87220703 4.06485352 19.53515625 4.51757812 C20.63730469 4.82115234 21.73945313 5.12472656 22.875 5.4375 C34.13119647 8.5200273 45.41879078 11.40028683 56.7746582 14.09204102 C67.10580919 16.54219183 77.39877596 19.10627686 87.66503906 21.81518555 C94.70327789 23.6710426 101.75645971 25.45674659 108.8293457 27.17602539 C113.3301684 28.28367083 117.78108498 29.50901473 122.23046875 30.80859375 C132.9438822 33.89532613 143.78856601 36.4756625 154.61230469 39.14282227 C165.10340673 41.73143066 175.57177926 44.35681854 185.96331787 47.32395935 C190.86146292 48.71693434 195.7856662 49.92905605 200.75 51.0625 C207.03778386 52.5051689 213.21423576 54.18216096 219.40625 56 C223.4153358 57.1155717 227.44444879 58.07132047 231.5 59 C236.63203358 60.17556716 241.69762602 61.44692995 246.75 62.9375 C252.70994765 64.68271615 258.70879527 66.18684527 264.75 67.625 C265.61334961 67.83116943 266.47669922 68.03733887 267.36621094 68.24975586 C271.65308324 69.25922665 275.94021601 70.19361895 280.265625 71.0234375 C283.9679286 71.74996287 287.44714135 72.709913 291 74 C297.21656793 76.06592892 303.33475586 77.90003482 309.76171875 79.171875 C323.36283733 81.96856574 331.51165761 84.87938418 340 96 C341.13701014 97.29944016 342.28181796 98.59213764 343.4375 99.875 C343.96214844 100.49117187 344.48679687 101.10734375 345.02734375 101.7421875 C347.7811989 104.89412468 350.64300491 107.94165555 353.5 111 C356.97657079 114.72241367 360.43332481 118.4456287 363.75 122.3125 C366.93669436 126.01574083 370.3839262 129.4209727 373.88671875 132.82421875 C380.44265764 139.57404862 380.44265764 139.57404862 380.5240339 145.39831391 C380.51352585 146.09269518 380.5030178 146.78707645 380.49219131 147.50249958 C380.49680669 148.2528416 380.50142207 149.00318361 380.50617731 149.77626327 C380.5167933 152.29897695 380.49879842 154.82067625 380.48101807 157.34333801 C380.4827619 159.16669268 380.48626334 160.99004638 380.49137473 162.81339473 C380.5003355 167.83031993 380.48429588 172.84690475 380.46426249 177.86378658 C380.44701777 183.27138386 380.45283208 188.67896134 380.45587158 194.08657837 C380.45797083 203.45778274 380.44540153 212.82887587 380.42292023 222.20005226 C380.39043704 235.74924729 380.37999697 249.29838843 380.37496826 262.84761818 C380.36620983 284.82935083 380.33957937 306.81102417 380.30175781 328.79272461 C380.26505191 350.14819181 380.23673319 371.50363874 380.21972656 392.85913086 C380.21867567 394.17508229 380.21762477 395.49103372 380.21654204 396.84686247 C380.21132195 403.44848462 380.20626711 410.05010689 380.20129442 416.65172923 C380.15981533 471.43452712 380.08935196 526.21726072 380 581 C376.1325614 579.16408517 372.95014832 576.7301044 369.625 574.0625 C368.37248635 573.06759437 367.1198795 572.07280606 365.8671875 571.078125 C365.22749023 570.56830078 364.58779297 570.05847656 363.92871094 569.53320312 C360.88133985 567.11073598 357.81459288 564.7131118 354.75 562.3125 C350.89996468 559.29115297 347.06270019 556.25594022 343.25 553.1875 C333.44381513 545.31993487 323.47037163 537.65785197 313.5 530 C302.85698343 521.82551579 292.23170165 513.62586881 281.77734375 505.2109375 C277.72780995 501.98725799 273.64589939 498.80561793 269.5625 495.625 C268.76779297 495.00496094 267.97308594 494.38492187 267.15429688 493.74609375 C266.40341797 493.16214844 265.65253906 492.57820313 264.87890625 491.9765625 C264.2041626 491.45143066 263.52941895 490.92629883 262.83422852 490.38525391 C259.54560516 487.9016057 257.69775098 486.75021179 253.6015749 486.73828697 C252.69660204 486.73082073 251.79162918 486.72335449 250.8592329 486.715662 C249.36696918 486.71856523 249.36696918 486.71856523 247.84455872 486.7215271 C246.79099182 486.71574142 245.73742493 486.70995575 244.65193176 486.70399475 C241.09320099 486.68689732 237.53459875 486.68412062 233.97583008 486.68115234 C231.39228592 486.67174739 228.80874482 486.66146911 226.22520733 486.6503849 C219.99327122 486.62517181 213.76135223 486.61020932 207.52937723 486.59880099 C200.32273235 486.58516803 193.11615669 486.55883143 185.9095459 486.5324707 C166.87723023 486.46914749 147.84486014 486.42313843 128.8125 486.375 C86.304375 486.25125 43.79625 486.1275 0 486 C0 325.62 0 165.24 0 0 Z " fill="#D6D6D6" transform="translate(365,444)"/>
<path d="M0 0 C0 2.31 0 4.62 0 7 C-2.31 7 -4.62 7 -7 7 C-6.99962028 8.00682184 -6.99924056 9.01364367 -6.99884933 10.05097526 C-6.98218869 54.40023936 -6.96675976 98.74950378 -6.95765686 143.09877014 C-6.9575188 143.76966715 -6.95738075 144.44056417 -6.95723851 145.13179139 C-6.95424595 159.710426 -6.95147572 174.28906064 -6.94893467 188.86769533 C-6.94768728 196.01653322 -6.94639073 203.1653711 -6.94506836 210.31420898 C-6.9449376 211.02562335 -6.94480684 211.73703771 -6.94467212 212.47001008 C-6.94040695 235.5498829 -6.93289279 258.62975328 -6.92370278 281.70962462 C-6.9142799 305.41723918 -6.90811682 329.12485239 -6.90608501 352.8324688 C-6.90476811 368.11682007 -6.90055554 383.40116445 -6.89208353 398.68551338 C-6.88681814 408.69144946 -6.88519523 418.69738188 -6.88649862 428.70331924 C-6.88714233 434.48558378 -6.88612085 440.26783604 -6.88079453 446.05009842 C-6.87596218 451.33434829 -6.87566025 456.61857751 -6.87910111 461.90282828 C-6.87952696 463.82342599 -6.87822984 465.74402493 -6.87511682 467.66462015 C-6.87115557 470.25746731 -6.87323489 472.85023801 -6.87695217 475.44308376 C-6.87432516 476.20412518 -6.87169814 476.9651666 -6.86899152 477.74926987 C-6.8858542 482.8858542 -6.8858542 482.8858542 -8 484 C-11.04741106 484.09044968 -14.07204589 484.11476118 -17.11959839 484.09765625 C-18.57319171 484.09553808 -18.57319171 484.09553808 -20.05615056 484.09337711 C-23.33026624 484.08762332 -26.60432131 484.07492374 -29.87841797 484.0625 C-32.2153665 484.05735075 -34.55231631 484.05276062 -36.88926697 484.0486908 C-41.93663003 484.03960331 -46.98398193 484.02829444 -52.03133774 484.01583862 C-60.01561885 483.99793485 -67.9998663 483.99576027 -75.98416138 483.99829102 C-76.65568213 483.99847343 -77.32720289 483.99865585 -78.01907276 483.99884379 C-83.55183398 484.00037522 -89.08459492 484.00254556 -94.61735591 484.00474477 C-99.60590653 484.00665461 -104.59445684 484.00789997 -109.58300781 484.00830078 C-110.29431383 484.0083651 -111.00561984 484.00842942 -111.73848058 484.00849569 C-123.24473766 484.00865141 -134.75076241 483.98002256 -146.25694726 483.94156575 C-158.07366979 483.90282259 -169.89006303 483.8984424 -181.70682061 483.92484093 C-188.34004679 483.93862049 -194.97256392 483.93521555 -201.60570908 483.89379883 C-207.85233327 483.85513133 -214.09753351 483.85859336 -220.34416389 483.89392281 C-222.63261696 483.89945491 -224.92116783 483.88969731 -227.20947456 483.86323357 C-241.40664075 483.36505588 -241.40664075 483.36505588 -253.7204895 489.38745117 C-255.18228411 490.89145419 -256.61448068 492.42545094 -258 494 C-259.19212784 494.9940394 -260.40212025 495.96800856 -261.64453125 496.8984375 C-262.16853516 497.30900391 -262.69253906 497.71957031 -263.23242188 498.14257812 C-263.75384766 498.54927734 -264.27527344 498.95597656 -264.8125 499.375 C-266.00653491 500.30986455 -267.20054459 501.24476132 -268.39453125 502.1796875 C-268.99088379 502.64600586 -269.58723633 503.11232422 -270.20166016 503.59277344 C-273.13807335 505.89055862 -276.06883098 508.1955315 -279 510.5 C-282.48652751 513.24052532 -285.97378154 515.98009629 -289.46484375 518.71484375 C-290.62248762 519.62227875 -291.78003944 520.52983119 -292.9375 521.4375 C-293.51387207 521.88939697 -294.09024414 522.34129395 -294.68408203 522.80688477 C-297.68761406 525.16656435 -300.67869871 527.54024082 -303.65234375 529.9375 C-309.97768372 535.03626898 -316.34450529 540.04076887 -322.875 544.875 C-328.56087233 549.0870909 -334.06538902 553.46877745 -339.5 558 C-345.17020025 562.7233128 -350.91347609 567.31488827 -356.8125 571.75 C-357.80830078 572.50216797 -357.80830078 572.50216797 -358.82421875 573.26953125 C-359.44554687 573.73230469 -360.066875 574.19507813 -360.70703125 574.671875 C-361.2481958 575.0750293 -361.78936035 575.47818359 -362.34692383 575.89355469 C-364.16173758 577.10825501 -366.04132421 578.03872811 -368 579 C-368.435225 522.88822807 -368.76985288 466.77662463 -368.97024126 410.66349552 C-368.99400368 404.0335548 -369.0185959 397.4036174 -369.04370117 390.77368164 C-369.04868507 389.45382319 -369.05366897 388.13396475 -369.05880389 386.77411059 C-369.1406824 365.42422539 -369.29116087 344.0754353 -369.46590313 322.72610738 C-369.6438061 300.80722599 -369.74916338 278.88885425 -369.7876814 256.96928054 C-369.81370718 243.45136228 -369.89578854 229.93620156 -370.05041287 216.41913257 C-370.15112621 207.14022077 -370.18114106 197.86272689 -370.15652617 188.58330866 C-370.14439579 183.23438735 -370.16249923 177.89027011 -370.26490402 172.54221153 C-370.90955162 137.14943999 -370.90955162 137.14943999 -361.39381725 126.70689088 C-358.20248276 123.77149141 -354.88116916 121.2029591 -351.31473124 118.74174368 C-347.63947873 115.97626157 -344.90015936 112.53667699 -342 109 C-340.51935245 107.48089407 -339.02255252 105.97710319 -337.5 104.5 C-334.73073773 101.76348239 -332.05412738 99.00092895 -329.5 96.0625 C-328.93925781 95.42054688 -328.37851562 94.77859375 -327.80078125 94.1171875 C-326.47844171 92.5625063 -325.18859573 90.9800359 -323.91796875 89.3828125 C-323.18191406 88.49335937 -322.44585938 87.60390625 -321.6875 86.6875 C-321.03136719 85.86636719 -320.37523437 85.04523438 -319.69921875 84.19921875 C-315.82734668 81.04456755 -311.79788432 80.1621456 -307 79 C-306.13189697 78.78561279 -305.26379395 78.57122559 -304.36938477 78.3503418 C-300.84227741 77.50114433 -297.3055957 76.6968615 -293.76757812 75.89453125 C-288.8112315 74.74597565 -284.03953448 73.38204427 -279.23168945 71.72314453 C-275.33997337 70.46209398 -271.36148536 69.59329318 -267.375 68.6875 C-260.16263385 67.00560739 -252.97557263 65.25601029 -245.8125 63.375 C-244.89670166 63.13458984 -243.98090332 62.89417969 -243.03735352 62.64648438 C-239.69113273 61.76597148 -236.34556468 60.88300255 -233 60 C-226.27177563 58.22557883 -219.54261075 56.45475306 -212.8125 54.6875 C-211.4639241 54.33336533 -211.4639241 54.33336533 -210.08810425 53.97207642 C-194.40700408 49.85826321 -178.69585501 45.87507227 -162.9609375 41.97265625 C-162.29717606 41.80794327 -161.63341461 41.64323029 -160.94953918 41.473526 C-157.62601429 40.64927024 -154.30170323 39.82842134 -150.97607422 39.01269531 C-142.3936175 36.89914697 -133.87256976 34.6170484 -125.37243652 32.19415283 C-121.90872259 31.20719652 -118.44249581 30.22912818 -114.9765625 29.25 C-114.29239258 29.05652985 -113.60822266 28.86305969 -112.90332031 28.66372681 C-100.74858033 25.22968406 -88.58049827 21.83602861 -76.30859375 18.84375 C-71.54183124 17.62814114 -66.80482181 16.30724676 -62.0625 15 C-56.20856566 13.38740493 -50.37021758 11.80117043 -44.4375 10.5 C-34.2676828 8.24600358 -24.21853197 5.24899961 -14.27539062 2.15112305 C-13.39689453 1.87824463 -12.51839844 1.60536621 -11.61328125 1.32421875 C-10.82606689 1.07502686 -10.03885254 0.82583496 -9.2277832 0.5690918 C-6.04826874 -0.24312171 -3.26299979 -0.21280433 0 0 Z " fill="#D6D6D6" transform="translate(1144,446)"/>
<path d="M0 0 C0.0967489 5.69528514 -0.24656373 11.1627579 -0.9375 16.8125 C-1.12466122 18.40353281 -1.3108627 19.99467882 -1.49609375 21.5859375 C-1.58487793 22.34616211 -1.67366211 23.10638672 -1.76513672 23.88964844 C-2.06326453 26.56846009 -2.28706903 29.25069831 -2.5 31.9375 C-2.77890539 35.22452802 -3.25395652 38.36096347 -3.9375 41.5859375 C-5.69831626 51.05985999 -6.03528025 60.73782739 -6.67724609 70.33813477 C-6.85185182 72.91727664 -7.03502228 75.49571306 -7.21875 78.07421875 C-7.26777466 78.85149826 -7.31679932 79.62877777 -7.36730957 80.42961121 C-7.67328094 84.69214169 -8.37721993 88.52581705 -9.49057007 92.66716003 C-10.66224371 98.03262236 -10.9716129 103.5591633 -11.47265625 109.01953125 C-11.60129136 110.36860597 -11.73056982 111.71761948 -11.86045837 113.0665741 C-12.19889609 116.59448976 -12.53068842 120.12299382 -12.8604126 123.6517334 C-13.39020389 129.316388 -13.92732485 134.9803313 -14.46990776 140.64377403 C-14.6575553 142.61717827 -14.84041579 144.59103579 -15.02320862 146.56489563 C-15.13680222 147.76011337 -15.25039581 148.95533112 -15.36743164 150.18676758 C-15.46576797 151.23963455 -15.56410431 152.29250153 -15.66542053 153.37727356 C-16 156 -16 156 -17 159 C-17.06802967 160.72795352 -17.08495645 162.45835365 -17.0625 164.1875 C-17.04896484 165.53908203 -17.04896484 165.53908203 -17.03515625 166.91796875 C-17.02355469 167.60503906 -17.01195312 168.29210937 -17 169 C-16.22168529 167.67101994 -15.45282756 166.33650123 -14.6875 165 C-14.25824219 164.2575 -13.82898438 163.515 -13.38671875 162.75 C-11.88295455 159.90769088 -11.88295455 159.90769088 -10.6953125 156.359375 C-8.75054244 151.02671929 -5.9547552 146.19143585 -3.1875 141.25 C0.65147605 134.31875553 4.40877532 127.39715089 7.81640625 120.2421875 C9.01903401 117.96394217 10.44780235 116.04924971 12 114 C12.70514846 111.85266073 12.70514846 111.85266073 13 110 C13.66 110 14.32 110 15 110 C15.0825 109.29875 15.165 108.5975 15.25 107.875 C16.17398254 104.33306692 17.97214605 102.04178093 20 99 C20.51205015 97.69997631 20.99029363 96.38623087 21.4375 95.0625 C22.44927032 92.14882264 23.629487 89.95120957 25.5 87.5 C27.75032785 84.53517636 28.9228126 81.77012325 30.109375 78.265625 C31.93468748 73.62228624 34.53986936 69.33110378 37 65 C37.66 65 38.32 65 39 65 C39.11214844 64.38511719 39.22429687 63.77023437 39.33984375 63.13671875 C39.53707031 62.32847656 39.73429687 61.52023437 39.9375 60.6875 C40.19853516 59.48673828 40.19853516 59.48673828 40.46484375 58.26171875 C43.39411827 53.94607002 48.72123317 53.44346684 53.6081543 52.49243164 C56.52534235 52.01176009 59.44638736 51.59269664 62.375 51.1875 C74.10919953 49.47805219 85.78867917 47.53119319 97.46844482 45.48666382 C124.06494435 40.83136155 124.06494435 40.83136155 131 41 C127.11169844 46.91405228 123.10344969 52.71610726 118.9375 58.4375 C117.79548529 60.01165519 116.65356088 61.58587588 115.51171875 63.16015625 C114.64232666 64.35729248 114.64232666 64.35729248 113.75537109 65.57861328 C112.02593797 67.96422076 110.3028044 70.35423392 108.58203125 72.74609375 C103.17884557 80.25436561 97.73304012 87.71824993 92.16015625 95.1015625 C89.39118637 98.81688917 86.70010429 102.58533384 84.01538086 106.36157227 C80.49045921 111.31944384 76.93793749 116.25688235 73.375 121.1875 C72.81675537 121.96013184 72.25851074 122.73276367 71.68334961 123.52880859 C68.7341155 127.60819655 65.77788547 131.68232983 62.8125 135.75 C59.85031652 139.81598659 56.92033549 143.90393789 54 148 C48.81261595 155.27429649 43.57758457 162.5123384 38.26953125 169.69921875 C33.35032634 176.36695621 28.50542034 183.0418259 24 190 C25.54494141 189.09121094 25.54494141 189.09121094 27.12109375 188.1640625 C27.80059082 187.76437256 28.48008789 187.36468262 29.18017578 186.95288086 C30.70594197 186.05534222 32.23165676 185.15771622 33.75732422 184.26000977 C37.63261941 181.97993478 41.50856879 179.70099771 45.38671875 177.42578125 C52.00442196 173.5416424 58.61317472 169.64469483 65.1875 165.6875 C71.29483136 162.01158568 77.42461901 158.37466103 83.5625 154.75 C84.49231689 154.20069824 85.42213379 153.65139648 86.38012695 153.08544922 C91.16301408 150.26119022 95.94871602 147.44182551 100.73828125 144.62890625 C101.67357666 144.078396 102.60887207 143.52788574 103.57250977 142.96069336 C105.42931573 141.86867341 107.28785992 140.77960326 109.14819336 139.69360352 C113.35341629 137.22424208 117.48870216 134.71308646 121.515625 131.9609375 C130.49845367 125.85813161 136.72682184 123.50791655 147.6640625 125.48046875 C152.34191144 126.20898621 157.03423178 126.59826046 161.75 127 C162.76336426 127.08830078 163.77672852 127.17660156 164.82080078 127.26757812 C171.16940518 127.80601795 177.51086823 128.20701337 183.875 128.5 C189.78132962 128.774849 195.291727 129.41436861 201 131 C197.38700935 136.66582625 193.50883374 141.98722735 189.26953125 147.19921875 C186.20444013 150.98178387 183.20806763 154.81673381 180.20825195 158.65112305 C179.31479952 159.79118376 178.4083441 160.92113756 177.49121094 162.04223633 C175.91649489 164.03228165 175.91649489 164.03228165 174.51660156 166.49487305 C169.87936922 173.6185941 165.18082048 175.49671246 157.23780823 177.31132507 C154.74628532 177.83656757 152.24910751 178.32476192 149.75 178.8125 C148.02379196 179.17979002 146.29844477 179.55114877 144.57397461 179.92651367 C141.21329199 180.65436987 137.84978074 181.36466602 134.48193359 182.05859375 C129.13859429 183.16770736 123.84662091 184.45047414 118.5625 185.8125 C117.79518555 186.00626221 117.02787109 186.20002441 116.23730469 186.3996582 C110.4410594 187.8667123 104.66712742 189.41536866 98.89453125 190.97265625 C94.34039962 192.18732836 89.76325057 193.30762582 85.1875 194.4375 C78.6970448 196.04144533 72.24505863 197.74045603 65.8125 199.5625 C56.52586107 202.1859247 47.15819309 204.3716548 37.75048828 206.51171875 C32.8235405 207.63546418 27.90886642 208.79960082 23 210 C22.08089844 210.21011719 21.16179687 210.42023438 20.21484375 210.63671875 C13.07797883 212.55865321 9.19287381 217.31658514 4.47924805 222.75439453 C0.11347523 227.77438462 -4.36967033 232.66347447 -8.9375 237.5 C-9.60201172 238.20769531 -10.26652344 238.91539062 -10.95117188 239.64453125 C-14.95059032 243.88833705 -19.01766744 248.04883548 -23.17333984 252.13989258 C-25.70065677 254.71348622 -28.03965932 257.43416233 -30.390625 260.16796875 C-32.49239542 262.56051809 -34.71440942 264.78366974 -37 267 C-40.65075814 265.49867699 -42.63276273 263.41104665 -45.1875 260.4375 C-48.23299514 256.96193494 -51.32925359 253.61440886 -54.625 250.375 C-58.01189025 247.03506836 -61.15920942 243.5741322 -64.25390625 239.96484375 C-66.09615675 237.89179676 -68.02401662 235.94564198 -70 234 C-74.43583713 229.62410661 -78.6866752 225.05333999 -82.453125 220.08203125 C-92.60339922 207.00379331 -116.51964953 205.60587907 -131.62646484 202.16943359 C-138.81306446 200.52870124 -145.93608053 198.7471636 -153.04296875 196.79296875 C-155.48176539 196.13897176 -157.90307529 195.56991957 -160.375 195.0625 C-164.63620125 194.16247058 -168.77288604 192.88669224 -172.9375 191.625 C-178.8134496 189.85298047 -184.68395428 188.33506703 -190.6875 187.0625 C-198.52156629 185.39919072 -206.22029623 183.36554318 -213.93457031 181.21777344 C-220.78767483 179.31265396 -227.66461504 177.57909017 -234.58984375 175.95703125 C-241.29698837 174.07472835 -245.46132749 172.1547695 -249.8125 166.625 C-250.44079712 165.83814819 -250.44079712 165.83814819 -251.08178711 165.03540039 C-252.40450979 163.36922873 -253.70447779 161.68738369 -255 160 C-255.42216797 159.45424316 -255.84433594 158.90848633 -256.27929688 158.34619141 C-257.96091525 156.17161787 -259.63848275 153.99415811 -261.30419922 151.80737305 C-264.79476041 147.22851312 -268.41612352 142.77364403 -272.08984375 138.33984375 C-277 132.32515337 -277 132.32515337 -277 130 C-276.02353516 129.91959473 -275.04707031 129.83918945 -274.04101562 129.75634766 C-270.33548942 129.45031346 -266.63034743 129.13981411 -262.92529297 128.828125 C-261.33717466 128.6951157 -259.7489612 128.56323643 -258.16064453 128.43261719 C-246.5633291 127.47780338 -235.01326433 126.32553175 -223.49658203 124.63183594 C-209.92268589 122.74052458 -201.91715785 128.5653281 -191.05078125 135.98486328 C-186.02856914 139.30219193 -180.81834437 142.29209242 -175.60821533 145.30099487 C-172.50114329 147.09681006 -169.40297077 148.90782676 -166.3046875 150.71875 C-165.69249359 151.07625839 -165.08029968 151.43376678 -164.44955444 151.80210876 C-158.22696134 155.44138354 -152.04882173 159.1536876 -145.875 162.875 C-137.82041829 167.72828802 -129.7297603 172.50728362 -121.57836914 177.19604492 C-114.32878659 181.37028743 -107.1560761 185.6678463 -100 190 C-101.77478353 185.94335192 -104.43473847 182.53008946 -107.0625 179 C-107.55419678 178.33427979 -108.04589355 177.66855957 -108.55249023 176.98266602 C-111.53452039 172.95150124 -114.54446788 168.9417819 -117.5625 164.9375 C-123.4749437 157.07520785 -129.15905897 149.052478 -134.80859375 141 C-140.67629068 132.64232097 -146.6411437 124.36845066 -152.71557617 116.15966797 C-158.33562678 108.56174879 -163.86991572 100.90380209 -169.39111328 93.23388672 C-171.54915096 90.23752181 -173.7112971 87.24413477 -175.8737793 84.25097656 C-176.95495584 82.75443735 -178.03584937 81.25769364 -179.11645508 79.76074219 C-181.87053719 75.94567145 -184.62782469 72.13298163 -187.390625 68.32421875 C-192.40300733 61.41038828 -197.40801566 54.49097171 -202.3125 47.5 C-203.03050781 46.4790625 -203.74851562 45.458125 -204.48828125 44.40625 C-206 42 -206 42 -206 40 C-198.0628173 40.99871835 -190.26521796 42.30810053 -182.4375 43.9375 C-174.49490348 45.58449801 -166.55046557 46.83414766 -158.5144043 47.92553711 C-152.17360708 48.79851536 -145.95057369 49.89987251 -139.69921875 51.2890625 C-136.93322064 51.8206482 -134.37192534 52.17061724 -131.58203125 52.3984375 C-130.82954102 52.47900391 -130.07705078 52.55957031 -129.30175781 52.64257812 C-127.86652758 52.79154664 -126.42555968 52.89594214 -124.98339844 52.94335938 C-121.14284492 53.39475032 -119.46983326 54.41806779 -117.01489258 57.45874023 C-114.84211564 60.900502 -112.88837016 64.3969537 -111 68 C-110.65891205 68.63969727 -110.3178241 69.27939453 -109.96640015 69.93847656 C-107.4343507 74.69771975 -104.99042075 79.49950743 -102.5625 84.3125 C-97.92818137 93.4754479 -93.21657136 102.56158626 -88.12159729 111.47883606 C-78 129.20116401 -78 129.20116401 -78 135 C-77.34 135 -76.68 135 -76 135 C-70.72 145.23 -65.44 155.46 -60 166 C-60.2165625 161.5140625 -60.2165625 161.5140625 -60.4375 156.9375 C-60.48060303 156.00929443 -60.52370605 155.08108887 -60.56811523 154.12475586 C-60.74555094 150.61392968 -60.97386012 147.18105079 -61.4765625 143.69921875 C-62.42833369 136.97289546 -62.72430198 130.17493449 -63.16210938 123.3984375 C-63.76389853 114.70918924 -64.6770145 106.07398151 -66.53320312 97.55200195 C-67.10282837 94.43783212 -67.28902543 91.38372769 -67.46484375 88.22265625 C-67.54350048 86.88996691 -67.62228075 85.55728486 -67.70117188 84.22460938 C-67.81941932 82.15855705 -67.93585296 80.09243028 -68.04956055 78.02612305 C-68.51503424 69.67081973 -69.24340248 61.45109179 -70.59985352 53.18139648 C-71.03450087 49.72569805 -71.20343589 46.47859636 -71 43 C-68.90234375 40.734375 -68.90234375 40.734375 -65.9375 38.75 C-64.82264623 37.97825511 -63.70807532 37.20610148 -62.59375 36.43359375 C-62.00335937 36.03640137 -61.41296875 35.63920898 -60.8046875 35.22998047 C-57.7880254 33.1739816 -54.87103726 30.984586 -51.9375 28.8125 C-50.66845702 27.88344726 -49.39890894 26.95508415 -48.12890625 26.02734375 C-44.3531911 23.26375171 -40.59306021 20.47945096 -36.83447266 17.69262695 C-34.40264763 15.89543246 -31.96192087 14.11092555 -29.51953125 12.328125 C-26.74689921 10.30217165 -24.01660225 8.24056505 -21.32421875 6.109375 C-14.25949 0.65106418 -8.99675108 -1.31303935 0 0 Z " fill="#D5D5D5" transform="translate(798,290)"/>
<path d="M0 0 C0 68.31 0 136.62 0 207 C82.17 207 164.34 207 249 207 C249 216.57 249 226.14 249 236 C154.29 236 59.58 236 -38 236 C-38.28875 201.55625 -38.5775 167.1125 -38.875 131.625 C-39.00245605 120.75256348 -39.12991211 109.88012695 -39.26123047 98.67822266 C-39.32446289 85.39331055 -39.32446289 85.39331055 -39.33621216 79.17245483 C-39.34924885 74.83020738 -39.40166796 70.49035981 -39.47805786 66.14877319 C-39.57429737 60.60537279 -39.60284521 55.06544692 -39.58301187 49.52128863 C-39.58715668 47.49011792 -39.61481408 45.45882245 -39.66901183 43.42837071 C-40.04504808 28.65070309 -40.04504808 28.65070309 -36.63293314 24.22806692 C-32.86032645 20.67832876 -28.56490836 18.38280847 -24 16 C-22.25666856 14.79285621 -20.52935772 13.56137276 -18.8359375 12.28515625 C-18.08699219 11.74439453 -17.33804687 11.20363281 -16.56640625 10.64648438 C-15.84324219 10.12376953 -15.12007813 9.60105469 -14.375 9.0625 C-13.61316406 8.51271484 -12.85132813 7.96292969 -12.06640625 7.39648438 C-11.33035156 6.86474609 -10.59429687 6.33300781 -9.8359375 5.78515625 C-9.19188965 5.31988525 -8.5478418 4.85461426 -7.88427734 4.37524414 C-6.5302381 3.38699549 -5.19959846 2.36638728 -3.88525391 1.32592773 C-2 0 -2 0 0 0 Z " fill="#181817" transform="translate(282,794)"/>
<path d="M0 0 C2.83881201 1.41940601 5.14171456 2.70297653 7.6875 4.50390625 C8.38069336 4.99318604 9.07388672 5.48246582 9.78808594 5.98657227 C10.51801758 6.50662842 11.24794922 7.02668457 12 7.5625 C12.75313477 8.09609131 13.50626953 8.62968262 14.28222656 9.17944336 C19.75973163 13.07555474 25.15092316 17.06863677 30.484375 21.16015625 C32.90260817 23.0791252 32.90260817 23.0791252 35.61964703 24.09416676 C38 26 38 26 38.61523914 29.64879131 C38.63630684 31.21011757 38.62940726 32.77196076 38.60127258 34.33317566 C38.60555267 35.19120789 38.60983276 36.04924011 38.61424255 36.93327332 C38.62254439 39.82867724 38.59486414 42.72264735 38.56762695 45.61791992 C38.56609591 47.72086955 38.56676165 49.82382175 38.56945324 51.92677021 C38.57058443 57.57058141 38.54155616 63.2138651 38.50640106 68.85755157 C38.47797599 74.14874478 38.47658823 79.43980815 38.47302246 84.7310791 C38.4467611 100.21662291 38.37695561 115.70206807 38.3125 131.1875 C38.209375 165.775625 38.10625 200.36375 38 236 C-50.77 236 -139.54 236 -231 236 C-231 226.43 -231 216.86 -231 207 C-154.77 207 -78.54 207 0 207 C0 138.69 0 70.38 0 0 Z " fill="#181817" transform="translate(1220,794)"/>
<path d="M0 0 C0.66 0.33 1.32 0.66 2 1 C1.026056 1.73199553 1.026056 1.73199553 0.03243637 2.47877884 C-2.77233559 5.95807615 -2.56083555 9.05998039 -2.51898193 13.33953857 C-2.52647964 14.1862059 -2.53397736 15.03287323 -2.54170227 15.90519714 C-2.56207021 18.75572887 -2.5538299 21.60547111 -2.54589844 24.45605469 C-2.55469396 26.52909754 -2.56523936 28.60213359 -2.57739639 30.67515945 C-2.60514955 36.23380182 -2.60890712 41.79221999 -2.60775757 47.35092163 C-2.61029667 52.56426633 -2.6343912 57.77742358 -2.65673828 62.99072266 C-2.7095248 78.24375544 -2.72763675 93.49689227 -2.75 108.75 C-2.8325 142.8225 -2.915 176.895 -3 212 C91.05 212 185.1 212 282 212 C282 203.09 282 194.18 282 185 C200.16 185 118.32 185 34 185 C34 184.67 34 184.34 34 184 C116.17 184 198.34 184 283 184 C283 193.57 283 203.14 283 213 C188.29 213 93.58 213 -4 213 C-4.0825 178.411875 -4.165 143.82375 -4.25 108.1875 C-4.28641602 97.25133545 -4.32283203 86.3151709 -4.36035156 75.04760742 C-4.37841797 61.7310791 -4.37841797 61.7310791 -4.3817749 55.50434875 C-4.38551353 51.13939849 -4.40055073 46.77464126 -4.42230225 42.40974426 C-4.44964454 36.84968322 -4.45798227 31.28990474 -4.4522891 25.7297827 C-4.45348037 23.68446068 -4.46146792 21.63912924 -4.47686052 19.5938648 C-4.49663101 16.83993914 -4.492008 14.08712452 -4.48101807 11.33317566 C-4.49266872 10.52504582 -4.50431938 9.71691599 -4.51632309 8.88429737 C-4.45772196 3.45563857 -4.45772196 3.45563857 -1.96993637 0.97917652 C-1.31985737 0.65604827 -0.66977837 0.33292002 0 0 Z " fill="#393938" transform="translate(248,817)"/>
<path d="M0 0 C0.99 0.33 1.98 0.66 3 1 C2.67 1.66 2.34 2.32 2 3 C1.89212585 5.66994399 1.84509685 8.31450121 1.84178162 10.98513794 C1.83684364 11.81989147 1.83190566 12.654645 1.82681805 13.51469409 C1.81139065 16.32766507 1.80306828 19.14061314 1.79467773 21.95361328 C1.78510333 23.96373701 1.77509351 25.97385872 1.76467896 27.98397827 C1.73757643 33.45474679 1.71659588 38.92552397 1.69667697 44.39632273 C1.67485033 50.10854083 1.64744543 55.82073204 1.62062073 61.53292847 C1.57064882 72.35596677 1.52572671 83.17901997 1.48259836 94.00208747 C1.43326437 106.32114335 1.37833204 118.64017225 1.32291877 130.95920205 C1.20902969 156.30610954 1.10220578 181.6530429 1 207 C0.67 207 0.34 207 0 207 C0 138.69 0 70.38 0 0 Z " fill="#3C3C3B" transform="translate(1220,794)"/>
<path d="M0 0 C0.99 0.33 1.98 0.66 3 1 C2.67 1.66 2.34 2.32 2 3 C1.87941945 5.09286161 1.82257322 7.18949778 1.79467773 9.28564453 C1.78477814 9.92967224 1.77487854 10.57369995 1.76467896 11.23724365 C1.73305501 13.36906235 1.70830313 15.50090335 1.68359375 17.6328125 C1.66302498 19.10969629 1.64202853 20.58657418 1.62062073 22.06344604 C1.56539201 25.95305611 1.5159863 29.84271937 1.46777344 33.73242188 C1.41756423 37.70056907 1.36187514 41.66863889 1.30664062 45.63671875 C1.19904928 53.42441367 1.09760652 61.21217286 1 69 C0.67 69 0.34 69 0 69 C0 46.23 0 23.46 0 0 Z " fill="#363635" transform="translate(1220,794)"/>
<path d="M0 0 C0.33 0 0.66 0 1 0 C0.88869202 3.16730012 0.7584174 6.33356026 0.625 9.5 C0.5940625 10.386875 0.563125 11.27375 0.53125 12.1875 C0.28582874 17.75038187 -0.54408442 22.6313113 -2 28 C-2.25488028 29.82744355 -2.47177009 31.66124105 -2.625 33.5 C-2.69976563 34.3559375 -2.77453125 35.211875 -2.8515625 36.09375 C-2.90054688 36.7228125 -2.94953125 37.351875 -3 38 C-3.33 38 -3.66 38 -4 38 C-4.20448681 30.04180786 -3.6141103 22.38463166 -2.5625 14.5 C-2.42779297 13.43007813 -2.29308594 12.36015625 -2.15429688 11.2578125 C-1.14406154 3.43218461 -1.14406154 3.43218461 0 0 Z " fill="#939393" transform="translate(790,357)"/>
<path d="M0 0 C0 2.31 0 4.62 0 7 C-2.31 7 -4.62 7 -7 7 C-6.67 5.35 -6.34 3.7 -6 2 C-7.32 1.67 -8.64 1.34 -10 1 C-6.52674819 -0.1577506 -3.63932552 -0.06866652 0 0 Z " fill="#959595" transform="translate(1144,446)"/>
<path d="M0 0 C0.33 0 0.66 0 1 0 C1.08701039 3.60401481 1.14039388 7.20776012 1.1875 10.8125 C1.22520508 12.34874023 1.22520508 12.34874023 1.26367188 13.91601562 C1.27333984 14.89892578 1.28300781 15.88183594 1.29296875 16.89453125 C1.3086792 17.80050049 1.32438965 18.70646973 1.34057617 19.63989258 C0.93875073 22.42444206 0.16311438 23.27599535 -2 25 C-2.02705729 23.22925083 -2.04642195 21.45838289 -2.0625 19.6875 C-2.07410156 18.70136719 -2.08570313 17.71523438 -2.09765625 16.69921875 C-2 14 -2 14 -1 11 C-0.77820215 9.10787263 -0.59385985 7.21115528 -0.4375 5.3125 C-0.35371094 4.31863281 -0.26992188 3.32476562 -0.18359375 2.30078125 C-0.12300781 1.54152344 -0.06242188 0.78226562 0 0 Z " fill="#5C5C5C" transform="translate(782,435)"/>
<path d="M0 0 C0.66 0.33 1.32 0.66 2 1 C1.35546875 1.48984375 0.7109375 1.9796875 0.046875 2.484375 C-2.72789277 5.89458577 -2.66800235 9.03084833 -2.75 13.25 C-2.77964844 13.99507812 -2.80929688 14.74015625 -2.83984375 15.5078125 C-2.9102343 17.33796672 -2.95741832 19.16898769 -3 21 C-3.33 21 -3.66 21 -4 21 C-4.107834 18.06152347 -4.18721916 15.12698849 -4.25 12.1875 C-4.28351563 11.35412109 -4.31703125 10.52074219 -4.3515625 9.66210938 C-4.38832251 7.37379889 -4.38495793 5.25678739 -4 3 C-1.984375 0.92578125 -1.984375 0.92578125 0 0 Z " fill="#2E2E2D" transform="translate(248,817)"/>
<path d="M0 0 C-1.03125 0.37125 -2.0625 0.7425 -3.125 1.125 C-7.39303156 2.92435343 -9.90393966 5.60188499 -13 9 C-13.66 8.67 -14.32 8.34 -15 8 C-6.81226937 -2.52306273 -6.81226937 -2.52306273 0 0 Z " fill="#B1B1B1" transform="translate(836,527)"/>
<path d="M0 0 C0.33 0.99 0.66 1.98 1 3 C-1.31 5.31 -3.62 7.62 -6 10 C-6.66 9.67 -7.32 9.34 -8 9 C-5.36 6.03 -2.72 3.06 0 0 Z " fill="#B9B9B8" transform="translate(799,558)"/>
<path d="M0 0 C2.96404505 2.80804268 5.44499019 5.18315774 7 9 C4.08482708 7.92598892 2.22189824 7.22189824 0 5 C0.66 5 1.32 5 2 5 C1.34 3.35 0.68 1.7 0 0 Z " fill="#4E4E4D" transform="translate(693,472)"/>
<path d="M0 0 C0.66 0.33 1.32 0.66 2 1 C0.7934375 2.0828125 0.7934375 2.0828125 -0.4375 3.1875 C-3.02292072 6.02515689 -3.68042813 7.27166147 -4 11 C-4.33 11 -4.66 11 -5 11 C-5.3125 7.75 -5.3125 7.75 -5 4 C-2.5 1.5625 -2.5 1.5625 0 0 Z " fill="#AEAEAD" transform="translate(732,329)"/>
</svg>
